<svg xmlns="http://www.w3.org/2000/svg" viewBox="0 0 64 64" id="RockHand"><path d="M25 55.6h13.3c2.8 0 5.2-2.3 5.2-5.2v-5c2.4-1.1 4.2-3.5 4.2-6.3V28.9c0-1.9-1.1-3.4-2.6-4.2V12.8c0-2.4-2-4.4-4.4-4.4s-4.4 2-4.4 4.4v4.5c-.7-.4-1.5-.7-2.4-.7-1.2 0-2.3.5-3.1 1.3l-.3.3-.3-.3c-.8-.8-1.9-1.3-3.1-1.3-.9 0-1.7.3-2.4.7v-1.5c0-1.1-.5-2.3-1.3-3.1-.8-.8-1.9-1.3-3.1-1.3-2.4 0-4.4 1.9-4.4 4.3v24c0 2.5 1.5 4.6 3.6 5.6v5c.4 2.9 2.7 5.3 5.5 5.3zm13.4-42.8c0-1.3 1.1-2.4 2.4-2.4s2.4 1.1 2.4 2.4v11.3h-4.7V12.8zm-6 6.4c.4-.4 1-.7 1.7-.7 1.3 0 2.4 1.1 2.4 2.4v3.2h-2.9c-.6 0-1.2.1-1.8.3v-3.5c-.1-.6.1-1.2.6-1.7zm-5-.7c.6 0 1.2.2 1.7.7.4.5.7 1 .7 1.7v5c-.7.8-1.1 1.9-1.1 3.1 0 1.1.4 2 .9 2.8-.4.8-1.2 1.4-2.2 1.4-1.3 0-2.4-1.1-2.4-2.4v-9.9c0-1.3 1.1-2.4 2.4-2.4zm-9.1 21.3v-24c0-1.3 1.1-2.3 2.4-2.3.6 0 1.2.2 1.7.7.4.4.7 1 .7 1.7v15c0 2.4 2 4.4 4.4 4.4 1.5 0 2.9-.8 3.7-2 .6.4 1.3.6 2.1.7-.8 1-1.3 2.2-1.3 3.6v2.1c0 .6.4 1 1 1s1-.4 1-1v-2.1c0-2 1.6-3.6 3.6-3.6.6 0 1-.4 1-1s-.4-1-1-1h-3.9c-1.6 0-2.9-1.3-2.9-2.9s1.3-2.9 2.9-2.9h9.4c1.6 0 2.8 1.3 2.8 2.8v10.2c0 2.7-2.2 4.9-4.9 4.9h-5.6c-.6 0-1 .4-1 1s.4 1 1 1h6.3v4.5c0 1.7-1.4 3.2-3.2 3.2H25c-1.7 0-3.2-1.4-3.2-3.2v-4.4h1.6c.6 0 1-.4 1-1s-.4-1-1-1h-1c-2.2-.2-4.1-2.1-4.1-4.4z" fill="#ffffff" class="color000000 svgShape"></path></svg>